<?xml version="1.0" encoding="UTF-8"?>
<svg id="Calque_1" data-name="Calque 1" xmlns="http://www.w3.org/2000/svg" xmlns:xlink="http://www.w3.org/1999/xlink" viewBox="0 0 300 112.5">
  <defs>
    <style>
      .cls-1 {
        fill: #e52623;
      }

      .cls-2 {
        fill: #fff;
      }

      .cls-3 {
        mask: url(#mask);
      }

      .cls-4 {
        fill: #c377af;
      }

      .cls-5 {
        fill: #4d69b0;
      }

      .cls-6 {
        fill: #ef7b1c;
      }

      .cls-7 {
        fill: url(#Dégradé_sans_nom_4);
        fill-rule: evenodd;
      }
    </style>
    <linearGradient id="Dégradé_sans_nom_4" data-name="Dégradé sans nom 4" x1="306.78" y1="-56.19" x2="319.19" y2="-90.31" gradientTransform="translate(-270.99 -16.35) scale(1 -1)" gradientUnits="userSpaceOnUse">
      <stop offset=".03" stop-color="#f18c66"/>
      <stop offset=".56" stop-color="#ef7dae"/>
      <stop offset=".95" stop-color="#4d69b0"/>
    </linearGradient>
    <mask id="mask" x="10.44" y="9.13" width="70.62" height="72.1" maskUnits="userSpaceOnUse">
      <g id="mask0_313_106-2" data-name="mask0 313 106">
        <path class="cls-7" d="M37.07,31.55c6.75,0,12.22,5.49,12.22,12.25v4.66h4.07c6.75,0,12.22,5.49,12.22,12.25s-5.47,12.25-12.22,12.25h-28.51v-29.16c0-6.77,5.47-12.25,12.22-12.25Z"/>
      </g>
    </mask>
  </defs>
  <g id="mask0_313_106" data-name="mask0 313 106">
    <path class="cls-7" d="M37.07,31.55c6.75,0,12.22,5.49,12.22,12.25v4.66h4.07c6.75,0,12.22,5.49,12.22,12.25s-5.47,12.25-12.22,12.25h-28.51v-29.16c0-6.77,5.47-12.25,12.22-12.25Z"/>
  </g>
  <path class="cls-2" d="M259.43,73.81c-3.08,0-5.76-.59-8.03-1.76-2.27-1.19-4.04-2.98-5.31-5.37-1.25-2.39-1.88-5.34-1.88-8.87s.65-6.24,1.96-8.66c1.31-2.45,3.12-4.3,5.43-5.57,2.31-1.27,4.94-1.91,7.88-1.91s5.34.62,7.54,1.85c2.19,1.23,3.9,3.02,5.11,5.37,1.23,2.35,1.85,5.16,1.85,8.43,0,1.17,0,2.11-.03,2.8h-23.02v-6.06h17.44l-3.29,1.13c0-1.58-.23-2.9-.69-3.96-.44-1.08-1.1-1.89-1.96-2.43-.87-.54-1.92-.81-3.15-.81s-2.43.32-3.41.95c-.96.62-1.71,1.54-2.25,2.77-.52,1.23-.78,2.71-.78,4.45v2.97c0,1.77.27,3.27.81,4.51.54,1.23,1.31,2.17,2.31,2.8,1,.62,2.19.92,3.55.92,1.5,0,2.74-.39,3.73-1.16.98-.79,1.6-1.9,1.85-3.32h8.75c-.27,2.23-1.03,4.17-2.28,5.8-1.23,1.64-2.88,2.9-4.94,3.78-2.06.89-4.46,1.33-7.19,1.33Z"/>
  <path class="cls-2" d="M232.84,31.55h8.75v41.42h-8.75V31.55Z"/>
  <path class="cls-2" d="M217.95,73.81c-1.66,0-3.14-.29-4.45-.87-1.29-.58-2.39-1.44-3.29-2.6-.9-1.17-1.58-2.62-2.02-4.33l.92.26v6.7h-8.66v-30.47h8.75v6.82l-.98.17c.44-1.64,1.12-3.03,2.02-4.19.92-1.17,2.05-2.07,3.38-2.69,1.33-.64,2.82-.95,4.48-.95,2.48,0,4.64.65,6.47,1.94,1.83,1.29,3.23,3.15,4.22,5.57.98,2.41,1.47,5.27,1.47,8.58s-.5,6.15-1.5,8.58c-1,2.41-2.44,4.26-4.3,5.55-1.85,1.29-4.01,1.94-6.5,1.94ZM215.23,67.13c1.31,0,2.41-.39,3.29-1.16.91-.77,1.58-1.86,2.02-3.26.46-1.41.69-3.06.69-4.97s-.23-3.56-.69-4.97c-.44-1.41-1.12-2.49-2.02-3.26-.89-.79-1.98-1.18-3.29-1.18s-2.4.39-3.32,1.18c-.9.77-1.59,1.87-2.05,3.29-.46,1.41-.69,3.05-.69,4.94s.23,3.56.69,4.97,1.15,2.49,2.05,3.26c.92.77,2.03,1.16,3.32,1.16ZM200.44,31.55h8.75v10.95h-8.75v-10.95Z"/>
  <path class="cls-2" d="M178.48,73.81c-1.91,0-3.62-.38-5.14-1.13-1.5-.75-2.69-1.82-3.55-3.21-.85-1.41-1.27-3.04-1.27-4.91,0-2.85.84-5.03,2.51-6.53,1.68-1.52,4.09-2.51,7.25-2.97l5.29-.75c1.06-.15,1.9-.35,2.51-.58.62-.23,1.07-.54,1.36-.92.29-.4.43-.91.43-1.53s-.17-1.21-.52-1.73c-.33-.54-.83-.96-1.5-1.27-.65-.33-1.45-.49-2.4-.49-1.5,0-2.7.39-3.61,1.18-.9.77-1.4,1.83-1.47,3.18h-9.04c.08-2.04.69-3.85,1.85-5.43,1.17-1.6,2.8-2.84,4.88-3.73,2.08-.89,4.49-1.33,7.22-1.33,2.87,0,5.29.47,7.28,1.42,1.98.92,3.48,2.25,4.48,3.99,1.02,1.73,1.53,3.8,1.53,6.21v12.71c0,1.37.1,2.64.29,3.81.21,1.16.51,1.89.9,2.2v.98h-9.1c-.21-.83-.38-1.76-.49-2.8-.12-1.04-.18-2.14-.2-3.29l1.42-.61c-.37,1.37-1.04,2.63-2.02,3.78-.96,1.14-2.2,2.05-3.73,2.74-1.5.67-3.22,1.01-5.14,1.01ZM181.71,67.39c1.23,0,2.32-.27,3.26-.81.94-.56,1.67-1.33,2.17-2.31.52-.98.78-2.1.78-3.35v-3.99l.72.4c-.46.62-1.04,1.09-1.73,1.42-.67.33-1.59.61-2.74.84l-2.22.43c-1.48.29-2.6.73-3.35,1.33-.73.6-1.1,1.43-1.1,2.51s.39,1.94,1.18,2.57c.79.64,1.8.95,3.03.95Z"/>
  <path class="cls-2" d="M138.75,42.5h9.3l8,26.14h-2.8l7.68-26.14h9.04l-10.54,30.47h-9.73l-10.95-30.47Z"/>
  <path class="cls-2" d="M125.07,73.81c-3.02,0-5.68-.65-7.97-1.96-2.27-1.31-4.03-3.18-5.29-5.6-1.23-2.43-1.85-5.27-1.85-8.52s.62-6.08,1.85-8.49c1.25-2.43,3.01-4.29,5.29-5.6,2.29-1.31,4.95-1.96,7.97-1.96s5.67.65,7.94,1.96c2.27,1.31,4.02,3.18,5.26,5.6,1.25,2.41,1.88,5.24,1.88,8.49s-.63,6.09-1.88,8.52c-1.23,2.43-2.98,4.29-5.26,5.6-2.27,1.31-4.92,1.96-7.94,1.96ZM125.07,67.11c1.27,0,2.36-.35,3.26-1.04.9-.71,1.6-1.76,2.08-3.15.48-1.41.72-3.14.72-5.2,0-3.06-.53-5.38-1.59-6.96-1.06-1.6-2.55-2.4-4.48-2.4-1.27,0-2.37.36-3.29,1.07-.9.69-1.6,1.74-2.08,3.15-.48,1.39-.72,3.1-.72,5.14s.24,3.76.72,5.17c.48,1.41,1.17,2.46,2.08,3.18.92.69,2.02,1.04,3.29,1.04Z"/>
  <path class="cls-2" d="M84.39,31.55h9.07v34.96l-1.62-1.88h12.22c7.73,0,6.67,8.33,6.67,8.33h-26.34V31.55Z"/>
  <g class="cls-3">
    <g>
      <circle class="cls-5" cx="42.72" cy="53.66" r="27.57"/>
      <ellipse class="cls-4" cx="45.75" cy="38.53" rx="35.31" ry="27.57"/>
      <ellipse class="cls-1" cx="51.51" cy="33.34" rx="27.57" ry="24.21"/>
      <circle class="cls-6" cx="46.24" cy="38.52" r="16.58"/>
    </g>
  </g>
</svg>