<?xml version="1.0" encoding="UTF-8"?>
<svg id="Calque_1" data-name="Calque 1" xmlns="http://www.w3.org/2000/svg" viewBox="0 0 300 112.5">
  <defs>
    <style>
      .cls-1 {
        fill: #21376a;
      }

      .cls-2 {
        fill: #fff;
      }

      .cls-3 {
        fill: #f5cd21;
      }

      .cls-4 {
        fill: #fddd75;
      }

      .cls-5 {
        fill: #628ac7;
      }
    </style>
  </defs>
  <path class="cls-2" d="M73.09,48.07l-3.23,3.23,3.23-3.23h0Z"/>
  <polygon class="cls-2" points="67.61 53.55 67.61 53.55 69.82 51.3 67.61 53.55"/>
  <g>
    <path class="cls-1" d="M90.55,39.49v28.42c0,.25.21.51.47.51,1.49.13,3.14.13,4.93,0,1.44-.13,3.19-.3,5.31-.64-.08.42-.13.89-.13,1.4,0,.42.04.98.13,1.53h-16.9v-31.26c.34.04.72.08,1.27.17.76.13,1.53.13,2,0h1.53c.51-.04,1.02-.08,1.4-.13ZM110.81,41.07c-.89.13-1.49.13-1.95,0h-1.53c-.55-.08-.93-.13-1.27-.17v29.86h5.9v-29.86c-.3.04-.68.08-1.15.17ZM116.67,40.9c.04.42.08.85.08,1.27,0,.55-.04,1.02-.08,1.44h.98c2.8-.34,5.14-.55,6.92-.55.3,0,.51.21.51.51v27.18h5.73v-27.18c0-.3.21-.51.51-.51,1.32,0,3.19.13,5.56.34.59.08,1.23.13,1.91.17-.08-.42-.08-.89,0-1.4-.08-.42-.08-.85,0-1.27h-22.13ZM143.51,40.9v29.86h16.14c-.08-.55-.13-1.02-.13-1.44,0-.47.04-.89.08-1.32-1.1.17-2.34.3-3.65.38-1.53.13-3.61.17-6.24.17-.3,0-.51-.21-.51-.51v-11.55c0-.3.21-.51.51-.51h4.33c1.44.08,2.59.17,3.74.25l.85.04c-.04-.13-.04-.25-.08-.38v-2.08s0-.13.04-.17c0-.04.04-.08.04-.13-1.53.17-2.93.25-4.59.25h-4.33c-.3,0-.51-.21-.51-.51v-9.77c0-.3.21-.51.51-.51,3.19,0,6.54.21,9.94.64-.13-.47-.17-.93-.17-1.36,0-.51.04-.98.17-1.44l-16.14.08h0ZM183.95,61.58c-.13-3.7-2.97-6.97-8.45-9.73-4.08-2.08-6.03-4.12-6.03-6.2,0-3.36,1.95-5.22,5.69-5.35,2.55,0,4.5,1.36,5.82,4.04.13-.47.34-1.06.59-1.83.3-.81.55-1.49.76-2.04-1.95-1.15-4.29-1.83-7.01-1.91-6.75.34-10.19,3.48-10.41,9.51,0,4.08,2.59,7.35,7.69,9.73,4.25,1.95,6.41,4.16,6.41,6.58-.25,3.44-2.29,5.22-6.07,5.35-3.74-.13-6.03-1.87-6.92-5.18h-.08c-.25,1.83-.59,3.61-1.1,5.31,2.25.85,4.59,1.36,6.97,1.44,7.52.04,11.68-3.53,12.15-9.73ZM193.8,57.29c-.08,0-.21.04-.34.13-.08.08-.17.21-.17.34v13h-5.95v-29.86h10.7c6.12,0,9.13,2.34,9.26,7.14.04,2.63-.68,4.71-2.12,6.2-2,2.04-5.52,3.1-10.45,3.1-.3-.04-.59-.04-.93-.04ZM193.76,55.8c.21.04.47.04.72.04.72,0,1.57-.13,2.51-.42,2.68-.76,4.2-2.97,4.42-6.54-.25-4.04-1.83-6.29-4.76-6.67h-2.85c-.25,0-.51.21-.51.51v12.61c.04.21.21.42.47.47ZM231.09,40.9v29.86h16.18c-.08-.55-.13-1.06-.13-1.44,0-.47.04-.93.13-1.32-1.1.17-2.34.3-3.65.38-1.53.13-3.57.17-6.24.17-.25,0-.51-.21-.51-.51v-11.55c0-.25.21-.51.51-.51h4.8c1.78.13,3.44.21,4.93.3-.04-.13-.04-.25-.08-.42v-2.08s0-.13.04-.17c0-.04.04-.08.04-.17-1.49.17-3.14.25-4.88.25h-4.8c-.25,0-.51-.21-.51-.51v-9.77c0-.25.21-.51.51-.51,3.19,0,6.54.21,9.98.64-.13-.47-.17-.93-.17-1.36,0-.51.04-1.02.17-1.44l-16.31.17h0ZM261.25,70.75h-9.85v-29.86h12.66c8.54.59,12.91,5.18,13.38,14.02-.59,9.94-6.03,15.29-16.18,15.84ZM270.81,54.95c0-8.2-3.7-12.36-10.96-12.36h-2.21c-.25,0-.51.21-.51.51v25.48c0,.25.21.51.51.51h1.95c3.7,0,6.54-1.23,8.41-3.61,1.83-2.34,2.8-5.9,2.8-10.53ZM210.66,40.9v29.86h16.18c-.08-.55-.13-1.06-.13-1.44,0-.47.04-.93.13-1.32-1.1.17-2.34.3-3.65.38-1.53.13-3.57.17-6.24.17-.25,0-.51-.21-.51-.51v-11.55c0-.25.21-.51.51-.51h4.8c1.78.13,3.44.21,4.93.3-.04-.13-.04-.25-.08-.42v-2.08s0-.13.04-.17c0-.04.04-.08.04-.17-1.49.17-3.14.25-4.88.25h-4.8c-.25,0-.51-.21-.51-.51v-9.77c0-.25.21-.51.51-.51,3.19,0,6.54.21,9.98.64-.13-.47-.17-.93-.17-1.36,0-.51.04-1.02.17-1.44l-16.31.17h0Z"/>
    <g>
      <g>
        <path class="cls-5" d="M69.06,55.38l-14.02-13.97-5.95,7.56,6.41,6.41c.59.59.59,1.57,0,2.17l-1.87,1.87s1.27,1.87,1.32,2c.3.59.34,1.95-.47,2.55l-14.61,11.21v11.51l29.18-29.14c.59-.59.59-1.57,0-2.17Z"/>
        <path class="cls-1" d="M36.56,57.12c-.59-.59-.59-1.57,0-2.17l1.87-1.87-1.27-1.83c-.59-.85-.42-2.08.42-2.72l14.61-11.21v-11.51h0l-29.18,29.18c-.59.59-.59,1.57,0,2.17l14.02,13.97,5.95-7.56-6.41-6.46Z"/>
      </g>
      <polygon class="cls-2" points="46.29 66.38 46.29 66.38 39.54 73.13 46.29 66.38"/>
      <g>
        <path class="cls-5" d="M59.58,32.87c.21,0,.38.13.47.3.17.3-.04.64-.25.89l-12.83,16.27c-.17.25-.21.68-.04.93,0,0,6.92,10.02,7.14,10.36.25.38.3,1.49-.34,1.95l-20.6,15.8c-.3.21-.47.3-.68.3-.17,0-.38-.13-.47-.3-.17-.3.04-.64.25-.89l12.91-16.27c.17-.25.21-.68.04-.93l-7.14-10.28c-.47-.64-.3-1.57.3-2.04l20.6-15.8c.3-.3.47-.3.64-.3M59.58,32.57c-.25,0-.47.08-.81.34l-20.6,15.8c-.72.55-.89,1.66-.38,2.42l7.14,10.28c.08.17.08.47-.04.64l-12.83,16.27c-.17.21-.51.68-.3,1.15.13.25.38.42.68.42.34,0,.55-.13.85-.34l20.6-15.8c.72-.55.72-1.83.38-2.29-.25-.34-7.14-10.36-7.14-10.36-.08-.17-.08-.47,0-.64l12.83-16.27c.17-.21.51-.64.3-1.15-.13-.25-.38-.47-.68-.47h0Z"/>
        <path class="cls-3" d="M53.59,61.62c.17.25.3,1.19-.08,1.53l-20.6,15.8c-.17.13-.3.21-.34.21-.08,0,0-.13.17-.38l12.78-16.23c.34-.42.34-1.1.04-1.53l-7.14-10.28s14.99,10.62,15.16,10.87Z"/>
        <path class="cls-4" d="M53.59,61.62l-7.05-10.11c-.3-.42-.25-1.1.04-1.53l12.83-16.27c.17-.25.25-.38.17-.38-.04,0-.17.04-.34.21l-20.6,15.8c-.42.3-.51.93-.21,1.36l15.16,10.92Z"/>
      </g>
    </g>
  </g>
</svg>