<?xml version="1.0" encoding="UTF-8"?>
<svg id="Calque_1" data-name="Calque 1" xmlns="http://www.w3.org/2000/svg" viewBox="0 0 300 112.5">
  <defs>
    <style>
      .cls-1 {
        fill: #464443;
      }

      .cls-2 {
        fill: #05759b;
      }
    </style>
  </defs>
  <g id="Layer_2" data-name="Layer 2">
    <g>
      <path class="cls-2" d="M172.51,50.05h-10.48v1.11c3.28,0,3.81.7,3.81,4.86v7.49c0,4.16-.53,4.92-3.81,4.92-2.52-.35-4.22-1.7-6.56-4.27l-2.69-2.93c3.63-.64,5.56-2.93,5.56-5.5,0-3.22-2.75-5.68-7.9-5.68h-10.3v1.11c3.28,0,3.81.7,3.81,4.86v7.49c0,4.16-.53,4.92-3.81,4.92v1.11h11.65v-1.11c-3.28,0-3.81-.76-3.81-4.92v-2.11h.99l6.5,8.14h17.04c8.37,0,12-4.45,12-9.78,0-5.33-3.63-9.72-12-9.72ZM147.98,59.6v-7.79h2.4c2.63,0,3.81,1.81,3.81,3.92s-1.17,3.86-3.81,3.86h-2.4ZM172.69,67.74h-.41c-2.11,0-2.4-.53-2.4-3.22v-12.7h2.81c6.09,0,7.2,4.45,7.2,7.9s-1.11,8.02-7.2,8.02Z"/>
      <path class="cls-2" d="M107.53,61.76l4.04-11.94c1.17-3.45.64-4.45-3.1-4.45v-1.17h11.01v1.17c-3.69,0-4.57.88-6.03,5.15l-6.67,20.02h-.76l-5.97-18.33-6.09,18.33h-.76l-6.5-20.02c-1.41-4.27-2.34-5.15-5.74-5.15v-1.17h13v1.17c-3.45,0-4.39.82-3.16,4.45l3.92,11.94,5.91-17.56h1.11l5.8,17.56Z"/>
      <path class="cls-2" d="M127.43,70.31c-6.44,0-11.71-4.74-11.71-10.54s5.27-10.48,11.71-10.48,11.71,4.74,11.71,10.48-5.27,10.54-11.71,10.54ZM127.43,51.11c-5.39,0-7.26,4.86-7.26,8.66s1.87,8.67,7.26,8.67,7.32-4.8,7.32-8.67-1.87-8.66-7.32-8.66Z"/>
      <path class="cls-1" d="M198.97,68.38v1.17h-13.41v-1.17c3.92,0,4.63-.99,4.63-6.85v-9.37c0-5.86-.7-6.79-4.63-6.79v-1.17h12.12c6.03,0,9.37,3.1,9.37,7.26s-3.34,7.2-9.37,7.2h-3.34v2.87c0,5.86.7,6.85,4.63,6.85ZM197.69,46.31h-3.34v10.19h3.34c3.28,0,4.8-2.28,4.8-5.03s-1.52-5.15-4.8-5.15Z"/>
      <path class="cls-1" d="M247.28,64.05l-.29,1.05c-.53,1.93-1.17,2.63-5.33,2.63h-.82c-3.04,0-3.57-.7-3.57-4.86v-2.69c4.57,0,4.92.41,4.92,3.45h1.11v-8.72h-1.11c0,3.04-.35,3.45-4.92,3.45v-6.56h3.22c4.16,0,4.8.7,5.33,2.63l.29,1.11h.94l-.41-5.5h-17.21v1.11c3.28,0,3.81.7,3.81,4.86v7.49c0,3.8-.45,4.76-3.03,4.9-2.46-.38-4.14-1.72-6.45-4.25l-2.69-2.93c3.63-.64,5.56-2.93,5.56-5.5,0-3.22-2.75-5.68-7.9-5.68h-10.3v1.11c3.28,0,3.81.7,3.81,4.86v7.49c0,4.16-.53,4.92-3.81,4.92v1.11h11.65v-1.11c-3.28,0-3.81-.76-3.81-4.92v-2.11h1l6.5,8.14h24.06l.35-5.5h-.88ZM216.25,59.6v-7.79h2.4c2.63,0,3.81,1.81,3.81,3.92s-1.17,3.86-3.81,3.86h-2.4Z"/>
      <path class="cls-1" d="M259.16,70.31c-2.34,0-4.39-1.23-5.27-1.99-.29.29-.82,1.17-.94,1.99h-1.11v-8.08h1.17c.47,3.86,3.16,6.15,6.62,6.15,1.87,0,3.4-1.05,3.4-2.81,0-1.52-1.35-2.69-3.75-3.81l-3.34-1.58c-2.34-1.11-4.1-3.05-4.1-5.62,0-2.81,2.63-5.21,6.26-5.21,1.93,0,3.57.7,4.57,1.52.29-.23.59-.88.76-1.58h1.11v6.91h-1.23c-.41-2.75-1.93-5.04-5.03-5.04-1.64,0-3.16.94-3.16,2.4s1.23,2.34,4.04,3.63l3.22,1.58c2.81,1.35,3.92,3.51,3.92,5.27,0,3.69-3.22,6.26-7.14,6.26Z"/>
      <path class="cls-1" d="M277.19,70.31c-2.34,0-4.39-1.23-5.27-1.99-.29.29-.82,1.17-.94,1.99h-1.11v-8.08h1.17c.47,3.86,3.16,6.15,6.62,6.15,1.87,0,3.4-1.05,3.4-2.81,0-1.52-1.35-2.69-3.75-3.81l-3.34-1.58c-2.34-1.11-4.1-3.05-4.1-5.62,0-2.81,2.63-5.21,6.26-5.21,1.93,0,3.57.7,4.57,1.52.29-.23.59-.88.76-1.58h1.11v6.91h-1.23c-.41-2.75-1.93-5.04-5.03-5.04-1.64,0-3.16.94-3.16,2.4s1.23,2.34,4.04,3.63l3.22,1.58c2.81,1.35,3.92,3.51,3.92,5.27,0,3.69-3.22,6.26-7.14,6.26Z"/>
      <g>
        <path class="cls-1" d="M22.4,56.48c0,10.26,5.96,19.12,14.6,23.32l-12.36-33.86c-1.44,3.22-2.24,6.79-2.24,10.54Z"/>
        <path class="cls-1" d="M65.8,55.17c0-3.2-1.15-5.42-2.14-7.15-1.31-2.13-2.54-3.94-2.54-6.08,0-2.38,1.81-4.6,4.35-4.6.11,0,.22.01.34.02-4.61-4.22-10.75-6.8-17.5-6.8-9.05,0-17.02,4.64-21.65,11.68.61.02,1.18.03,1.67.03,2.71,0,6.91-.33,6.91-.33,1.4-.08,1.56,1.97.17,2.13,0,0-1.4.17-2.97.25l9.44,28.07,5.67-17.01-4.04-11.06c-1.4-.08-2.72-.25-2.72-.25-1.4-.08-1.23-2.22.16-2.13,0,0,4.28.33,6.82.33,2.71,0,6.91-.33,6.91-.33,1.4-.08,1.56,1.97.17,2.13,0,0-1.41.17-2.97.25l9.36,27.85,2.58-8.64c1.12-3.58,1.97-6.16,1.97-8.38Z"/>
        <path class="cls-1" d="M48.76,58.75l-7.77,22.59c2.32.68,4.78,1.06,7.32,1.06,3.02,0,5.91-.52,8.6-1.47-.07-.11-.13-.23-.18-.36l-7.97-21.82Z"/>
        <path class="cls-1" d="M71.04,44.05c.11.83.17,1.71.17,2.66,0,2.63-.49,5.58-1.97,9.28l-7.91,22.88c7.7-4.49,12.88-12.84,12.88-22.4,0-4.5-1.15-8.74-3.17-12.43Z"/>
        <path class="cls-1" d="M48.31,26.28c-16.65,0-30.2,13.55-30.2,30.2s13.55,30.2,30.2,30.2,30.2-13.55,30.2-30.2c0-16.65-13.55-30.2-30.2-30.2ZM48.31,85.3c-15.89,0-28.82-12.93-28.82-28.82s12.93-28.82,28.82-28.82,28.82,12.93,28.82,28.82c0,15.89-12.93,28.82-28.82,28.82Z"/>
      </g>
    </g>
  </g>
</svg>