<?xml version="1.0" encoding="UTF-8"?>
<svg id="Calque_1" data-name="Calque 1" xmlns="http://www.w3.org/2000/svg" xmlns:xlink="http://www.w3.org/1999/xlink" viewBox="0 0 300 112.5">
  <defs>
    <style>
      .cls-1 {
        fill: #5cb888;
      }

      .cls-2 {
        fill: #202020;
      }

      .cls-3 {
        fill: url(#Dégradé_sans_nom_9);
        fill-opacity: .2;
      }

      .cls-4 {
        fill: url(#Dégradé_sans_nom_10);
      }
    </style>
    <linearGradient id="Dégradé_sans_nom_10" data-name="Dégradé sans nom 10" x1="302.67" y1="-77.75" x2="322.33" y2="-86" gradientTransform="translate(-270.99 -16.35) scale(1 -1)" gradientUnits="userSpaceOnUse">
      <stop offset="0" stop-color="#249462"/>
      <stop offset="1" stop-color="#5cb888"/>
    </linearGradient>
    <linearGradient id="Dégradé_sans_nom_9" data-name="Dégradé sans nom 9" x1="303.61" y1="-57.39" x2="312.58" y2="-74.27" gradientTransform="translate(-270.99 -16.35) scale(1 -1)" gradientUnits="userSpaceOnUse">
      <stop offset="0" stop-color="#010101"/>
      <stop offset="1" stop-color="#010101" stop-opacity="0"/>
    </linearGradient>
  </defs>
  <path class="cls-2" d="M81.13,62.93c.29,2.74,2.79,7.44,10.02,7.44,6.31,0,9.34-4.01,9.34-7.93,0-3.52-2.4-6.41-7.14-7.39l-3.42-.73c-1.32-.24-2.2-.98-2.2-2.15,0-1.37,1.37-2.4,3.08-2.4,2.74,0,3.76,1.81,3.96,3.23l5.43-1.22c-.29-2.59-2.59-6.95-9.44-6.95-5.18,0-9,3.57-9,7.88,0,3.38,2.1,6.17,6.75,7.2l3.18.73c1.86.39,2.59,1.27,2.59,2.35,0,1.27-1.03,2.4-3.18,2.4-2.84,0-4.25-1.76-4.4-3.67l-5.57,1.22Z"/>
  <path class="cls-2" d="M121.27,69.64h6.21c-.1-.83-.24-2.5-.24-4.36v-19.73h-6.5v14c0,2.79-1.66,4.75-4.55,4.75-3.03,0-4.4-2.15-4.4-4.85v-13.9h-6.5v15.22c0,5.24,3.32,9.5,9.14,9.5,2.54,0,5.33-.98,6.65-3.23,0,.98.1,2.1.2,2.59Z"/>
  <path class="cls-2" d="M140.67,78.94v-11.65c1.17,1.62,3.62,2.94,6.94,2.94,6.8,0,11.34-5.38,11.34-12.68s-4.06-12.53-11.1-12.53c-3.62,0-6.31,1.62-7.38,3.48v-2.94h-6.31v33.38h6.5ZM152.55,57.6c0,4.31-2.64,6.8-5.96,6.8s-6.01-2.55-6.01-6.8,2.69-6.75,6.01-6.75,5.96,2.5,5.96,6.75Z"/>
  <path class="cls-2" d="M162.64,63.08c0,3.77,3.13,7.24,8.26,7.24,3.57,0,5.87-1.66,7.09-3.57,0,.93.1,2.25.24,2.89h5.96c-.15-.83-.29-2.55-.29-3.82v-11.85c0-4.85-2.84-9.15-10.46-9.15-6.45,0-9.93,4.16-10.32,7.93l5.77,1.22c.2-2.1,1.76-3.92,4.6-3.92s4.06,1.42,4.06,3.13c0,.83-.44,1.52-1.81,1.71l-5.92.88c-4.01.59-7.19,2.99-7.19,7.29ZM172.27,65.48c-2.1,0-3.13-1.37-3.13-2.79,0-1.86,1.32-2.79,2.98-3.03l5.43-.83v1.08c0,4.26-2.54,5.58-5.28,5.58Z"/>
  <path class="cls-2" d="M196.77,69.64v-2.94c1.27,2.06,3.81,3.52,7.14,3.52,6.85,0,11.34-5.43,11.34-12.73s-4.06-12.58-11.1-12.58c-3.57,0-6.21,1.57-7.28,3.28v-14h-6.4v35.44h6.31ZM208.74,57.55c0,4.41-2.64,6.85-5.96,6.85s-6.01-2.5-6.01-6.85,2.74-6.8,6.01-6.8,5.96,2.4,5.96,6.8Z"/>
  <path class="cls-2" d="M218.93,63.08c0,3.77,3.13,7.24,8.26,7.24,3.57,0,5.87-1.66,7.09-3.57,0,.93.1,2.25.24,2.89h5.96c-.15-.83-.29-2.55-.29-3.82v-11.85c0-4.85-2.84-9.15-10.46-9.15-6.45,0-9.92,4.16-10.32,7.93l5.77,1.22c.2-2.1,1.76-3.92,4.6-3.92s4.06,1.42,4.06,3.13c0,.83-.44,1.52-1.81,1.71l-5.91.88c-4.01.59-7.19,2.99-7.19,7.29ZM228.56,65.48c-2.1,0-3.13-1.37-3.13-2.79,0-1.86,1.32-2.79,2.98-3.03l5.43-.83v1.08c0,4.26-2.54,5.58-5.28,5.58Z"/>
  <path class="cls-2" d="M244.7,62.93c.29,2.74,2.79,7.44,10.02,7.44,6.31,0,9.34-4.01,9.34-7.93,0-3.52-2.39-6.41-7.14-7.39l-3.42-.73c-1.32-.24-2.2-.98-2.2-2.15,0-1.37,1.37-2.4,3.08-2.4,2.74,0,3.76,1.81,3.96,3.23l5.43-1.22c-.29-2.59-2.59-6.95-9.44-6.95-5.18,0-9,3.57-9,7.88,0,3.38,2.1,6.17,6.75,7.2l3.18.73c1.86.39,2.59,1.27,2.59,2.35,0,1.27-1.03,2.4-3.18,2.4-2.84,0-4.25-1.76-4.4-3.67l-5.57,1.22Z"/>
  <path class="cls-2" d="M273.93,54.86c.15-2.2,2-4.75,5.38-4.75,3.72,0,5.28,2.35,5.38,4.75h-10.76ZM285.32,61.12c-.78,2.15-2.44,3.67-5.48,3.67-3.23,0-5.92-2.3-6.06-5.48h17.21c0-.1.1-1.08.1-2.01,0-7.73-4.45-12.48-11.88-12.48-6.16,0-11.83,4.99-11.83,12.68,0,8.13,5.82,12.87,12.42,12.87,5.92,0,9.73-3.48,10.95-7.64l-5.43-1.62Z"/>
  <path class="cls-4" d="M38.22,84.23c-1.4,1.76-4.24.8-4.27-1.45l-.49-32.91h22.13c4.01,0,6.24,4.63,3.75,7.77l-21.12,26.59Z"/>
  <path class="cls-3" d="M38.22,84.23c-1.4,1.76-4.24.8-4.27-1.45l-.49-32.91h22.13c4.01,0,6.24,4.63,3.75,7.77l-21.12,26.59Z"/>
  <path class="cls-1" d="M29.22,31.28c1.4-1.76,4.24-.8,4.27,1.45l.22,32.91H11.85c-4.01,0-6.24-4.63-3.75-7.77l21.12-26.59Z"/>
</svg>