<?xml version="1.0" encoding="UTF-8"?>
<svg id="Calque_1" data-name="Calque 1" xmlns="http://www.w3.org/2000/svg" viewBox="0 0 300 112.5">
  <defs>
    <style>
      .cls-1, .cls-2 {
        fill: #1e1f21;
      }

      .cls-2 {
        fill-rule: evenodd;
      }
    </style>
  </defs>
  <path class="cls-2" d="M129.36,58.2c.58-1.49.87-3.21.87-5.17s-.3-3.69-.89-5.17c-.59-1.49-1.4-2.74-2.43-3.75-1.03-1.01-2.26-1.79-3.61-2.28-1.41-.51-2.9-.77-4.4-.76-1.47,0-2.94.25-4.32.76-1.35.5-2.58,1.27-3.61,2.28-1.04,1.01-1.87,2.26-2.48,3.75-.61,1.49-.92,3.21-.92,5.17s.3,3.69.89,5.17c.59,1.49,1.4,2.74,2.43,3.74,1.03,1,2.23,1.76,3.61,2.27,1.41.51,2.9.77,4.4.76,1.6,0,3.09-.25,4.48-.76,1.35-.48,2.58-1.25,3.6-2.26,1.01-1,1.8-2.25,2.38-3.74ZM113.26,56.07c-.29-.99-.42-2.01-.41-3.04,0-1.1.14-2.11.41-3.03.24-.85.64-1.65,1.18-2.35.51-.64,1.15-1.17,1.89-1.52.74-.36,1.6-.54,2.56-.54s1.79.18,2.54.53c.76.35,1.39.85,1.9,1.5s.91,1.43,1.18,2.35c.27.91.41,1.93.41,3.06s-.14,2.14-.41,3.04c-.24.84-.64,1.64-1.18,2.33-.51.64-1.16,1.16-1.9,1.5-.76.36-1.6.53-2.54.53s-1.82-.18-2.56-.53c-.74-.35-1.39-.86-1.89-1.5-.54-.7-.94-1.49-1.18-2.33Z"/>
  <path class="cls-1" d="M143.11,60.56c.72,0,1.32-.06,1.79-.18.47-.12.85-.29,1.13-.5.27-.19.47-.44.59-.74.11-.29.16-.61.16-.96,0-.75-.35-1.37-1.05-1.87-.7-.5-1.9-1.03-3.61-1.61-.75-.26-1.49-.57-2.24-.91s-1.41-.77-2-1.29c-.6-.53-1.09-1.17-1.45-1.89-.37-.74-.56-1.64-.56-2.69s.2-2.01.59-2.86c.39-.85.95-1.57,1.68-2.16.78-.62,1.67-1.09,2.63-1.37,1.03-.32,2.19-.48,3.48-.48,1.53,0,2.86.17,3.98.5,1.11.33,2.04.7,2.76,1.09l-1.48,4.07c-.68-.35-1.39-.64-2.12-.88-.78-.25-1.71-.38-2.81-.38-1.23,0-2.11.17-2.65.51-.54.34-.8.87-.8,1.57,0,.42.1.77.3,1.06.2.29.48.55.84.78.36.23.78.44,1.25.63.47.19.99.38,1.56.58,1.18.44,2.21.88,3.09,1.31s1.61.93,2.19,1.5c.58.57,1.01,1.25,1.3,2.02s.43,1.71.43,2.81c0,2.14-.74,3.8-2.23,4.98-1.49,1.18-3.73,1.77-6.73,1.77-1.65.02-3.29-.19-4.88-.63-.55-.15-1.09-.34-1.61-.56-.39-.17-.77-.35-1.13-.56l1.44-4.1c.68.37,1.52.71,2.51,1.01,1,.3,2.22.45,3.66.45h0ZM174.65,41.58v4.4h-6.87v18.52h-5.12v-18.52h-6.87v-4.4h18.85ZM180.34,64.5h5.12v-22.92h-5.12v22.92ZM208.4,64.5c-1.48-2.65-3.07-5.24-4.76-7.77-1.68-2.52-3.5-4.93-5.45-7.24v15.01h-5.06v-22.92h4.17c.72.73,1.52,1.62,2.39,2.68.88,1.06,1.77,2.19,2.68,3.39.91,1.2,1.81,2.45,2.71,3.74.9,1.29,1.74,2.53,2.53,3.72v-13.52h5.09v22.92h-4.3ZM231.46,45.55c-2.39,0-4.11.67-5.17,2-1.06,1.33-1.59,3.16-1.59,5.47,0,1.12.13,2.14.39,3.06.26.91.66,1.7,1.18,2.36.53.66,1.18,1.17,1.97,1.54.79.36,1.71.55,2.76.55.57,0,1.06-.01,1.46-.03.36-.02.71-.06,1.07-.13v-7.97h5.12v11.34c-.61.24-1.6.5-2.96.78-1.36.27-3.03.42-5.02.42-1.71,0-3.26-.27-4.65-.8-1.34-.5-2.56-1.29-3.56-2.31-.98-1.01-1.75-2.26-2.28-3.74-.54-1.48-.8-3.16-.8-5.06s.3-3.61.89-5.09,1.4-2.73,2.43-3.75c1.03-1.03,2.27-1.82,3.63-2.33,1.42-.54,2.93-.8,4.45-.8,1.74-.01,3.47.23,5.14.71.85.24,1.66.59,2.41,1.04l-1.48,4.13c-.77-.4-1.58-.73-2.41-.98-.97-.28-1.97-.42-2.97-.41h0ZM245.82,64.5v-22.92h15.37v4.33h-10.25v4.5h9.1v4.23h-9.1v5.52h11v4.33h-16.13Z"/>
  <path class="cls-2" d="M282.65,43.15c-1.82-1.22-4.43-1.83-7.85-1.83-.94,0-2.01.04-3.2.13-1.19.09-2.35.24-3.46.46v22.59h5.12v-8.37h2.53c.44.53.88,1.12,1.32,1.77.95,1.4,1.83,2.84,2.65,4.31.43.77.85,1.53,1.27,2.28h5.73c-.39-.84-.82-1.69-1.28-2.56-.46-.87-.94-1.71-1.43-2.51-.48-.78-.98-1.56-1.49-2.32-.46-.67-.94-1.33-1.44-1.97,1.38-.57,2.44-1.36,3.17-2.36.74-1,1.1-2.31,1.1-3.92,0-2.58-.91-4.48-2.73-5.71ZM274.09,45.75c.3-.02.63-.03,1-.03,1.64,0,2.88.24,3.73.71.84.47,1.26,1.27,1.26,2.4s-.42,2-1.25,2.48c-.83.49-2.21.73-4.14.73h-1.45v-6.22c.26-.02.54-.04.84-.07h0Z"/>
  <path class="cls-1" d="M95.56,41.77h5.16v22.84h-5.16v-9.69h-8.66v9.69h-5.15v-22.84h5.15v8.73h8.66v-8.73Z"/>
  <path class="cls-2" d="M46.58,25.79v16.33l13.19,7.71v-17.32l-13.19-6.72ZM13.25,25.79v25.63h42.91l-13.06-7.18h-17.01v-11.55l-12.85-6.9ZM46.58,73.44v-11.45h-17.14c.01.06-13.27-7.3-13.27-7.3l43.6.21v25.63l-13.19-7.08ZM13.25,56.69v16.75l12.85,6.73v-15.94l-12.85-7.53Z"/>
</svg>