<?xml version="1.0" encoding="UTF-8"?>
<svg id="Calque_1" data-name="Calque 1" xmlns="http://www.w3.org/2000/svg" viewBox="0 0 769.1 344.45">
  <defs>
    <style>
      .cls-1 {
        fill: #fff;
      }

      .cls-2 {
        fill: #f97316;
      }
    </style>
  </defs>
  <path class="cls-1" d="M200.37,0h22.26v219.38h-22.26c-9.11,0-16.53-5.85-16.53-13.3v-76.58c0-2.39-2.7-4.52-5.73-4.52H44.53c-3.04,0-5.4,2.13-5.4,4.52v76.58c0,7.45-7.76,13.3-16.87,13.3H0V0h22.26c9.11,0,16.87,5.85,16.87,13.03v76.85c0,2.39,2.36,4.52,5.4,4.52h133.58c3.04,0,5.73-2.13,5.73-4.52V13.03c0-7.18,7.42-13.03,16.53-13.03Z"/>
  <path class="cls-1" d="M273.23,17.55V0h83.66c76.57,0,138.98,49.19,138.98,109.56s-62.41,109.82-138.98,109.82h-83.66v-17.55c0-7.18,7.42-13.3,16.87-13.3h66.79c55.32,0,100.19-35.37,100.19-78.98s-44.87-78.98-100.19-78.98h-66.79c-9.44,0-16.87-5.85-16.87-13.03h0Z"/>
  <path class="cls-1" d="M585.59,62.49c0,17.55,17.88,31.91,40.14,31.91h64.09c43.85,0,79.27,27.92,79.27,62.49s-35.42,62.49-79.27,62.49h-143.36v-17.55c0-7.18,7.42-13.3,16.87-13.3h126.5c22.26,0,40.48-14.09,40.48-31.64s-18.22-31.91-40.48-31.91h-64.09c-43.85,0-79.27-27.92-79.27-62.49S581.88,0,625.73,0h143.36v17.55c0,7.18-7.42,13.03-16.53,13.03h-126.83c-22.26,0-40.14,14.36-40.14,31.91h0Z"/>
  <path class="cls-2" d="M253.09,96.94h-11.02c-1.08,0-2.08.58-2.63,1.52l-5.51,9.55c-.54.94-.54,2.09,0,3.03l5.51,9.55c.54.94,1.54,1.52,2.63,1.52h11.02c1.08,0,2.08-.58,2.63-1.52l5.51-9.55c.54-.94.54-2.09,0-3.03l-5.51-9.55c-.54-.94-1.54-1.52-2.63-1.52h0Z"/>
  <path class="cls-1" d="M191.86,313.68c-1.87,0-3.54-1.12-4.29-2.89l-22.76-56.98c-.56-1.31-2.33-1.31-2.89,0l-22.85,56.98c-.65,1.77-2.33,2.89-4.2,2.89h-9.23l30.78-76.94h10.73c1.87,0,3.64,1.12,4.29,2.89l29.66,74.05h-9.24Z"/>
  <path class="cls-1" d="M226.46,291.39c.47,6.53,6.16,11.47,12.68,11.47h15.02c4.29,0,7.74,3.45,7.74,7.74v10.73c0,12.78-10.35,23.13-23.13,23.13h-7.74v-6.16c0-2.52,2.15-4.66,4.66-4.66h3.08c6.81,0,12.31-5.5,12.31-12.31v-6.16c0-.84-.65-1.49-1.59-1.49h-10.73c-13.15,0-23.69-10.91-23.04-24.25.56-12.4,11.28-21.92,23.69-21.92h22.48v6.15c0,2.52-2.15,4.57-4.66,4.57h-18.47c-7.09,0-12.78,5.97-12.31,13.15h0Z"/>
  <path class="cls-1" d="M322.71,275.07c0,2.05-.84,4.01-2.33,5.5l-22.2,22.2c.56.09,1.21.09,1.77.09h18.09c2.52,0,4.66,2.14,4.66,4.66v6.16h-23.13c-13.15,0-23.69-10.91-23.04-24.25.56-12.4,11.28-21.92,23.69-21.92h14.83c4.2,0,7.65,3.36,7.65,7.55h.01ZM307.69,280.95c1.03-1.03.28-2.71-1.03-2.71h-7.09c-7.09,0-12.78,5.97-12.31,13.15.19,2.05.84,3.92,1.87,5.6.47.75,1.68.84,2.33.19l16.23-16.23Z"/>
  <path class="cls-1" d="M342.86,313.68h-6.16v-23.13c0-13.06,10.91-23.69,24.25-23.04,12.4.56,21.92,11.28,21.92,23.69v22.48h-6.16c-2.52,0-4.57-2.05-4.57-4.66v-18.47c0-6.99-5.97-12.68-13.15-12.22-6.53.37-11.47,6.15-11.47,12.68v18c0,2.61-2.14,4.66-4.66,4.66h0Z"/>
  <path class="cls-1" d="M443.68,307.52v6.16h-23.13c-13.15,0-23.69-10.91-23.04-24.25.56-12.4,11.29-21.92,23.69-21.92h22.48v6.15c0,2.52-2.14,4.57-4.66,4.57h-18.47c-7.09,0-12.78,5.97-12.31,13.15.47,6.53,6.16,11.47,12.68,11.47h18.09c2.52,0,4.66,2.14,4.66,4.66h.01Z"/>
  <path class="cls-1" d="M504.48,275.07c0,2.05-.84,4.01-2.33,5.5l-22.2,22.2c.56.09,1.21.09,1.77.09h18.09c2.52,0,4.66,2.14,4.66,4.66v6.16h-23.13c-13.15,0-23.69-10.91-23.04-24.25.56-12.4,11.28-21.92,23.69-21.92h14.83c4.2,0,7.65,3.36,7.65,7.55h.01ZM489.46,280.95c1.03-1.03.28-2.71-1.03-2.71h-7.09c-7.09,0-12.78,5.97-12.31,13.15.19,2.05.84,3.92,1.87,5.6.47.75,1.68.84,2.33.19l16.23-16.23Z"/>
  <path class="cls-2" d="M565.11,289.99v-22.48h6.15c2.52,0,4.66,2.05,4.66,4.57v18.47c0,7.09,5.88,12.78,13.06,12.31,6.62-.37,11.56-6.16,11.56-12.68v-18.09c0-2.52,2.05-4.57,4.57-4.57h6.16v23.04c0,7.09,5.97,12.78,13.15,12.31,6.53-.37,11.47-6.16,11.47-12.68v-18.09c0-2.52,2.05-4.57,4.66-4.57h6.16v23.04c0,13.15-11,23.69-24.25,23.13-6.06-.28-11.47-3.08-15.39-7.18-.56-.65-1.58-.65-2.14,0-4.57,4.76-11.19,7.65-18.37,7.09-12.22-.84-21.45-11.38-21.45-23.59v-.03h0Z"/>
  <path class="cls-2" d="M707.52,275.07c0,2.05-.84,4.01-2.33,5.5l-22.2,22.2c.56.09,1.21.09,1.77.09h18.09c2.52,0,4.66,2.14,4.66,4.66v6.16h-23.13c-13.15,0-23.69-10.91-23.04-24.25.56-12.4,11.28-21.92,23.69-21.92h14.83c4.2,0,7.65,3.36,7.65,7.55h0ZM692.5,280.95c1.03-1.03.28-2.71-1.03-2.71h-7.09c-7.09,0-12.78,5.97-12.31,13.15.19,2.05.84,3.92,1.87,5.6.47.75,1.68.84,2.33.19l16.23-16.23h0Z"/>
  <path class="cls-2" d="M767.68,289.43c.65,13.34-9.98,24.25-23.04,24.25h-23.13v-6.16c0-2.52,2.05-4.66,4.66-4.66h18.47c6.99,0,12.68-5.97,12.22-13.06-.37-6.62-6.16-11.56-12.68-11.56h-14.92c-4.29,0-7.74-3.45-7.74-7.65v-33.85h6.15c2.52,0,4.66,2.05,4.66,4.57v24.62c0,.84.65,1.59,1.49,1.59h10.17c12.4,0,23.13,9.51,23.69,21.92h0Z"/>
  <path class="cls-2" d="M292.76,96.94h-11.02c-1.08,0-2.08.58-2.63,1.52l-5.51,9.55c-.54.94-.54,2.09,0,3.03l5.51,9.55c.54.94,1.54,1.52,2.63,1.52h11.02c1.08,0,2.08-.58,2.63-1.52l5.51-9.55c.54-.94.54-2.09,0-3.03l-5.51-9.55c-.54-.94-1.54-1.52-2.63-1.52Z"/>
  <path class="cls-2" d="M333.08,97.11h-11.02c-1.08,0-2.08.58-2.63,1.52l-5.51,9.55c-.54.94-.54,2.09,0,3.03l5.51,9.55c.54.94,1.54,1.52,2.63,1.52h11.02c1.08,0,2.08-.58,2.63-1.52l5.51-9.55c.54-.94.54-2.09,0-3.03l-5.51-9.55c-.54-.94-1.54-1.52-2.63-1.52Z"/>
</svg>