<?xml version="1.0" encoding="UTF-8"?>
<svg id="Calque_1" data-name="Calque 1" xmlns="http://www.w3.org/2000/svg" viewBox="0 0 300 112.5">
  <defs>
    <style>
      .cls-1 {
        fill: #010101;
      }
    </style>
  </defs>
  <path class="cls-1" d="M141.83,45.24c2.66,0,4.03,2.49,4.03,7.52.02.26.03.57.03.89,0,1.96-.42,3.82-1.18,5.5l.04-.08c-.6.96-1.65,1.58-2.84,1.58h-.15,0-.09c-1.15,0-2.14-.64-2.66-1.57v-.02c-.65-1.55-1.02-3.35-1.02-5.24,0-.41.02-.82.05-1.23v.05c0-4.97,1.26-7.41,3.79-7.41h0ZM91.37,45.17c-1.5.18-2.76,1.1-3.41,2.38v.03c-1.44,1.98-2.29,4.45-2.29,7.13v.16h0c.02,1.24.26,2.42.71,3.51l-.03-.06c.56,1.48,1.33,2.26,2.23,2.45.1,0,.22.02.33.02,1.09,0,2.07-.47,2.74-1.22h0c1.48-1.47,2.51-3.4,2.87-5.54v-.05c.16-.84.26-1.8.27-2.8h0c-.02-1.26-.26-2.44-.71-3.52l.03.06c-.57-1.48-1.32-2.26-2.23-2.45-.15-.04-.33-.06-.51-.06h0v-.02ZM67.63,45.17c-1.5.18-2.77,1.1-3.41,2.38v.03c-1.44,1.98-2.29,4.45-2.29,7.13v.16h0c.02,1.24.26,2.42.71,3.51l-.03-.06c.56,1.48,1.33,2.26,2.23,2.45.1,0,.22.02.33.02,1.09,0,2.07-.47,2.74-1.22h0c1.48-1.47,2.51-3.4,2.87-5.54v-.05c.17-.81.27-1.74.27-2.69v-.13h0c-.02-1.24-.26-2.42-.71-3.51l.03.06c-.57-1.48-1.32-2.26-2.23-2.45-.15-.04-.33-.06-.51-.06h0v-.02ZM241.07,45.05c.13,0,.27-.02.43-.02,1.16,0,2.24.31,3.17.85l-.03-.02c.65.55,1.06,1.36,1.06,2.26,0,.12,0,.23-.02.34v-.02c0,1.78-1.54,2.69-4.61,2.73v-6.15.03ZM218,40.12v25.8h14.13v-5.51h-7.15v-4.74h6.16v-5.34h-6.15v-4.73h7.09v-5.49h-14.08ZM272.62,40.08v25.8h14.13v-5.51h-7.18v-4.72h6.15v-5.34h-6.15v-4.74h7.14v-5.51h-14.08ZM234.14,40.08v25.8h6.97v-11.75h.14l5.63,11.74h7.35l-5.57-11.61c2.47-1.07,4.18-3.48,4.22-6.28h0v-.23c0-2.28-1.12-4.3-2.83-5.53l-.02-.02c-1.99-1.34-4.44-2.14-7.08-2.14-.24,0-.46,0-.7.02h.04-8.12ZM188.69,40.08l-3.31,25.8h6.6l1.78-17.76,4.52,17.76h4.7l4.27-17.72,1.88,17.72h6.87l-3.48-25.8h-9l-1.36,5.79c-.35,1.48-.68,3-.98,4.56l-.76,4.02c-.72-4.02-1.71-8.79-2.96-14.36h-8.79ZM157.15,40.08l-3.31,25.8h6.6l1.78-17.76,4.5,17.76h4.7l4.32-17.72,1.87,17.72h6.87l-3.47-25.8h-9.01l-1.37,5.79c-.35,1.48-.68,3-.99,4.56l-.76,4.01c-.88-4.81-1.86-9.59-2.94-14.36h-8.78ZM266.52,39.39c-.15,0-.35,0-.53,0-7.08,0-12.83,5.75-12.83,12.83,0,.15,0,.31,0,.46v-.02c0,.19-.02.41-.02.63,0,3.64,1.43,6.96,3.76,9.41h0c2.39,2.37,5.66,3.83,9.3,3.83.18,0,.36,0,.55,0h-.03c1.41-.02,2.77-.23,4.04-.62l-.1.03v-6.15c-1.03.34-2.21.55-3.43.58h-.25c-1.81,0-3.44-.77-4.58-2.01h0c-1.14-1.49-1.82-3.38-1.82-5.44s.66-3.89,1.79-5.39l-.02.03c1.05-1.27,2.62-2.07,4.38-2.07h.15,0c1.35,0,2.65.21,3.88.58l-.1-.03v-6.12c-1.2-.33-2.58-.51-4-.51h-.15,0,0ZM125.05,39.39c-.15,0-.35,0-.53,0-7.08,0-12.83,5.75-12.83,12.83,0,.15,0,.31,0,.46v-.02c0,.19-.02.41-.02.63,0,3.64,1.43,6.96,3.76,9.41h0c2.38,2.37,5.66,3.83,9.29,3.83.18,0,.36,0,.56,0h-.03c1.41-.02,2.77-.23,4.04-.62l-.1.03v-6.15c-1.03.34-2.21.55-3.43.58h-.25c-1.81,0-3.44-.77-4.58-2.01h0c-1.14-1.49-1.82-3.38-1.82-5.44s.66-3.89,1.79-5.39l-.02.03c1.05-1.27,2.62-2.07,4.38-2.07h.15,0c1.36,0,2.65.21,3.88.58l-.1-.03v-6.12c-1.2-.33-2.58-.51-4.01-.51h-.15,0,0ZM141.76,39.36c-.15,0-.33,0-.51,0-3.05,0-5.79,1.34-7.67,3.47h0c-1.84,2.43-2.95,5.49-2.95,8.81,0,.34,0,.66.04.99v-.05c-.02.32-.04.68-.04,1.06,0,3.48,1.1,6.69,2.99,9.31l-.04-.05c1.89,2.22,4.7,3.62,7.83,3.62.23,0,.46,0,.68-.02h-.03c.16,0,.36.02.56.02,3.1,0,5.87-1.4,7.73-3.6v-.02c1.85-2.53,2.96-5.69,2.96-9.12,0-.33,0-.66-.03-.99v.05c.02-.29.03-.63.03-.97,0-3.41-1.12-6.56-3.02-9.09l.03.04c-1.97-2.15-4.78-3.49-7.9-3.49-.23,0-.46,0-.67.02h.03ZM91.19,38.84c.73,0,1.44.08,2.11.24h-.06c2.62.49,4.79,2.12,6.02,4.34l.02.05c1.16,2.01,1.83,4.42,1.83,6.99,0,.16,0,.33,0,.49v-.03.19c0,3.89-1.1,7.53-3,10.62l.05-.09c-1.66,3.33-5,5.61-8.89,5.7h0c-.74-.02-1.44-.1-2.12-.26h.06c-2.62-.49-4.8-2.11-6.03-4.32l-.02-.05c-1.15-2.05-1.83-4.49-1.83-7.09,0-.15,0-.29,0-.44v.02-.19c0-3.88,1.1-7.5,3.01-10.58l-.05.08c1.67-3.32,5-5.58,8.88-5.67h.03ZM67.45,38.84c.73,0,1.44.08,2.11.24h-.06c2.62.51,4.78,2.13,6.02,4.34l.03.05c1.16,2.01,1.84,4.43,1.84,7.01,0,.15,0,.31,0,.46v-.02.16c0,3.9-1.1,7.55-3.01,10.63l.05-.09c-1.66,3.33-5,5.61-8.89,5.7h0c-.74-.02-1.44-.1-2.12-.26h.06c-2.62-.49-4.8-2.11-6.03-4.32l-.03-.05c-1.14-2.04-1.81-4.47-1.81-7.06,0-.16,0-.32,0-.48v.03-.23c0-3.86,1.09-7.47,3-10.53l-.05.08c1.67-3.32,5-5.58,8.88-5.67h.03ZM52.72,34.73h.35c.78.02,1.49.3,2.05.76h0c.66.51,1.11,1.27,1.17,2.16h0c0,.09,0,.18,0,.28,0,.56-.15,1.1-.39,1.57v-.02c-1.81,3.99-3.11,8.6-3.64,13.46l-.02.2c-.7,3.73-1.1,8.04-1.1,12.43,0,.71,0,1.41.03,2.11v-.1c.02.15.03.32.03.49,0,.73-.17,1.42-.48,2.02v-.03c-.36.76-1.11,1.3-1.98,1.37h-.03c-1.2,0-2.27-.55-2.98-1.4h0c-3.94-4.45-6.86-9.89-8.32-15.89l-.05-.25c-2.46,4.84-4.28,8.48-5.44,10.91-2.23,4.29-4.13,6.47-5.72,6.58-1.03.08-1.89-.78-2.66-2.59-2.69-8.2-4.87-17.94-6.15-27.94l-.08-.82c-.03-.15-.05-.34-.05-.53,0-.76.25-1.45.66-2.01h0c.56-.7,1.42-1.16,2.39-1.16h0c.16-.04.35-.05.54-.05,1.52,0,2.75,1.23,2.75,2.75v.02h0c1.17,7.92,2.48,14.63,3.83,20.12l8.29-15.81c.47-1.2,1.54-2.08,2.83-2.27h.02c1.67-.12,2.7.95,3.11,3.19.88,4.93,2.12,9.27,3.75,13.42l-.16-.47c.39-7.62,2.2-14.73,5.16-21.2l-.15.36c.46-.96,1.38-1.62,2.48-1.68h0l-.02.02ZM21.84,29.66h0c-4.74,0-8.59,3.85-8.59,8.59v.05h0v28.77h0c0,4.77,3.86,8.63,8.62,8.63h35.74l16.31,9.1-3.71-9.1h27.05c4.76,0,8.63-3.86,8.63-8.63h0v-28.78h0c0-4.77-3.86-8.64-8.63-8.64H21.84Z"/>
</svg>