<?xml version="1.0" encoding="UTF-8"?>
<svg id="Calque_1" data-name="Calque 1" xmlns="http://www.w3.org/2000/svg" viewBox="0 0 300 112.5">
  <defs>
    <style>
      .cls-1, .cls-2 {
        fill: #767676;
      }

      .cls-2 {
        fill-rule: evenodd;
      }

      .cls-3 {
        fill: #e3750b;
      }

      .cls-4 {
        fill: #f8ab09;
      }
    </style>
  </defs>
  <g>
    <path class="cls-1" d="M117.53,62.44l4.47,11.75h-8.67l4.2-11.75h0ZM115.85,58.51l-9.79,25.72h3.63l2.52-6.99h10.9l2.52,6.99h3.63l-9.79-25.72h-3.63,0ZM168.67,84.25h3.37v-25.72h-3.37v25.72h0ZM134.3,69.13c1.12-1.68,3.37-3.08,5.59-3.08,4.47,0,6.71,3.08,6.71,7.55v10.9h-3.37v-10.34c0-3.63-1.96-5.03-4.47-5.03-2.8,0-4.75,2.8-4.75,5.31v9.79h-3.37v-17.87h3.37l.28,2.8v-.02ZM149.4,78.93c0-3.93,3.63-6.15,7.83-6.15,2.52,0,4.2.56,4.75,1.12v-.56c0-2.8-2.24-4.2-4.47-4.2-1.96,0-3.63.84-4.2,2.52l-3.08-1.4c.56-1.68,2.8-4.2,7.27-4.2,4.2,0,7.83,2.52,7.83,7.55v10.62h-3.08v-2.52h-.28c-.84,1.4-2.8,3.08-5.87,3.08-3.63,0-6.71-2.24-6.71-5.87M161.98,76.69s-1.4-1.12-4.2-1.12c-3.37,0-4.75,1.96-4.75,3.37,0,1.96,1.96,2.8,3.63,2.8,2.52,0,5.31-2.24,5.31-5.03"/>
    <path class="cls-2" d="M176.8,92.08l3.93-9.23-6.99-16.22h3.37l5.31,12.3,5.31-12.3h3.37l-10.9,25.44h-3.41ZM226.01,72.5c-.84-2.24-2.8-3.63-4.75-3.63-2.8,0-5.31,2.52-5.31,6.15s2.52,6.15,5.31,6.15c1.96,0,3.93-1.4,4.75-3.37l2.8,1.68c-1.4,3.08-4.2,5.03-7.55,5.03-4.75,0-8.67-4.2-8.67-9.51,0-5.59,3.93-9.51,8.67-9.51,3.37,0,6.15,1.96,7.55,5.03l-2.8,1.96h0Z"/>
    <path class="cls-1" d="M238.03,84.81c4.47,0,6.71-2.52,6.71-5.59,0-6.71-9.79-4.2-9.79-8.11,0-1.4,1.12-2.24,3.08-2.24s3.93.84,4.75,2.24l1.96-1.96c-1.12-1.4-4.2-3.37-6.99-3.37-4.2,0-6.43,2.52-6.43,5.59,0,6.43,10.06,4.2,10.06,7.55,0,1.68-1.12,2.8-3.37,2.8s-3.37-1.4-4.47-2.8l-2.48,1.98c1.68,1.68,4.2,3.93,6.99,3.93v-.02ZM206.16,84.25h3.37v-17.89h-3.37v17.89Z"/>
    <path class="cls-2" d="M207.55,57.7c1.4,0,2.24,1.12,2.24,2.24,0,1.4-1.12,2.24-2.24,2.24s-2.24-1.12-2.24-2.24,1.12-2.24,2.24-2.24ZM202.8,81.47l.56,2.52h-3.37c-3.08,0-4.47-2.24-4.47-5.59v-8.7h-3.37v-3.37h3.37v-5.28h3.37v5.31h3.93v3.37h-3.93v9.23c0,2.52,1.96,2.52,3.93,2.52h-.02Z"/>
    <path class="cls-1" d="M123.06,30.09v4.2h9.79c-.28,2.24-1.12,3.93-2.24,5.03-1.4,1.4-3.63,3.08-7.55,3.08-5.87,0-10.62-4.75-10.62-10.9s4.75-10.9,10.62-10.9c3.37,0,5.59,1.4,7.27,2.8l2.8-2.8c-2.52-2.24-5.59-4.2-10.06-4.2-8.11,0-15.1,6.71-15.1,14.8s6.99,14.8,15.1,14.8c4.47,0,7.83-1.4,10.34-4.2,2.8-2.8,3.63-6.43,3.63-9.51,0-.84,0-1.96-.28-2.52h-13.7v.32ZM147.94,26.72c-5.31,0-9.51,3.93-9.51,9.51s4.2,9.51,9.51,9.51c5.2.05,9.46-4.13,9.51-9.34,0-.06,0-.11,0-.17,0-5.59-4.2-9.51-9.51-9.51ZM147.94,42.08c-2.8,0-5.31-2.52-5.31-5.87s2.52-5.85,5.31-5.85,5.31,2.25,5.31,5.86-2.52,5.87-5.31,5.87h0ZM193.78,28.67c-1.12-1.12-2.8-2.24-5.31-2.24-4.75,0-8.95,4.2-8.95,9.51s4.2,9.51,8.95,9.51c2.24,0,4.2-1.12,5.03-2.24h.28v1.4c0,3.63-1.96,5.59-5.03,5.59-2.52,0-4.2-1.96-4.75-3.37l-3.63,1.4c1.12,2.52,3.93,5.59,8.39,5.59,5.03,0,9.23-2.8,9.23-10.06v-17.33h-3.93v2.24h-.26ZM189.03,42.09c-2.8,0-5.03-2.52-5.03-5.87s2.24-5.87,5.03-5.87,5.03,2.52,5.03,5.87-2.24,5.87-5.03,5.87ZM168.62,26.73c-5.31,0-9.51,3.93-9.51,9.51s4.2,9.51,9.51,9.51c5.2.05,9.46-4.13,9.51-9.34,0-.06,0-.11,0-.17.28-5.59-4.2-9.51-9.51-9.51ZM168.62,42.09c-2.8,0-5.31-2.52-5.31-5.87s2.52-5.87,5.31-5.87,5.31,2.24,5.31,5.87-2.52,5.87-5.31,5.87ZM201.09,16.67h4.2v29.08h-4.2v-29.08ZM216.74,42.11c-2.24,0-3.63-1.12-4.75-2.8l12.86-5.31-.56-1.12c-.84-2.24-3.37-6.15-8.11-6.15-5.03,0-8.95,3.93-8.95,9.51-.05,5.2,4.13,9.46,9.34,9.51.06,0,.11,0,.17,0,4.47,0,6.99-2.8,8.11-4.2l-3.37-2.24c-1.12,1.68-2.52,2.8-4.75,2.8h.02ZM216.46,30.37c1.68,0,3.08.84,3.63,2.24l-8.67,3.63c0-4.2,2.8-5.87,5.03-5.87Z"/>
  </g>
  <g>
    <path class="cls-4" d="M81.67,25.81v49.11c0,5.5,3.79,8.56,7.81,8.56,3.72,0,7.81-2.6,7.81-8.56V26.18c0-5.04-3.72-8.19-7.81-8.19s-7.81,3.47-7.81,7.81Z"/>
    <g>
      <path class="cls-3" d="M61.2,50.73v24.18c0,5.5,3.79,8.56,7.81,8.56,3.72,0,7.81-2.6,7.81-8.56v-23.81c0-5.04-3.72-8.19-7.81-8.19s-7.81,3.47-7.81,7.81Z"/>
      <circle class="cls-3" cx="48.55" cy="75.66" r="7.81"/>
    </g>
  </g>
</svg>