<?xml version="1.0" encoding="UTF-8"?>
<svg xmlns="http://www.w3.org/2000/svg" viewBox="0 0 256 256">
  <rect width="256" height="256" fill="#0a0a0a"/>
  <g transform="translate(-524.62, -120.80) scale(2.27)">
    <path fill="#f97316" d="M253.09,96.94h-11.02c-1.08,0-2.08.58-2.63,1.52l-5.51,9.55c-.54.94-.54,2.09,0,3.03l5.51,9.55c.54.94,1.54,1.52,2.63,1.52h11.02c1.08,0,2.08-.58,2.63-1.52l5.51-9.55c.54-.94.54-2.09,0-3.03l-5.51-9.55c-.54-.94-1.54-1.52-2.63-1.52h0Z"/>
    <path fill="#f97316" d="M292.76,96.94h-11.02c-1.08,0-2.08.58-2.63,1.52l-5.51,9.55c-.54.94-.54,2.09,0,3.03l5.51,9.55c.54.94,1.54,1.52,2.63,1.52h11.02c1.08,0,2.08-.58,2.63-1.52l5.51-9.55c.54-.94.54-2.09,0-3.03l-5.51-9.55c-.54-.94-1.54-1.52-2.63-1.52Z"/>
    <path fill="#f97316" d="M333.08,97.11h-11.02c-1.08,0-2.08.58-2.63,1.52l-5.51,9.55c-.54.94-.54,2.09,0,3.03l5.51,9.55c.54.94,1.54,1.52,2.63,1.52h11.02c1.08,0,2.08-.58,2.63-1.52l5.51-9.55c.54-.94.54-2.09,0-3.03l-5.51-9.55c-.54-.94-1.54-1.52-2.63-1.52Z"/>
  </g>
</svg>
