<?xml version="1.0" encoding="UTF-8"?>
<svg id="Calque_1" data-name="Calque 1" xmlns="http://www.w3.org/2000/svg" viewBox="0 0 512 512">
  <defs>
    <style>
      .cls-1 {
        fill: #ee7221;
      }

      .cls-2 {
        fill: #fff;
      }
    </style>
  </defs>
  <circle class="cls-1" cx="256" cy="256" r="256"/>
  <path class="cls-2" d="M120.11,192h-44.78c-4.39,0-8.45,2.36-10.69,6.18l-22.39,38.81c-2.19,3.82-2.19,8.49,0,12.31l22.39,38.81c2.19,3.82,6.26,6.18,10.69,6.18h44.78c4.39,0,8.45-2.36,10.69-6.18l22.39-38.81c2.19-3.82,2.19-8.49,0-12.31l-22.39-38.81c-2.19-3.82-6.26-6.18-10.69-6.18h0Z"/>
  <path class="cls-2" d="M281.32,192h-44.78c-4.39,0-8.45,2.36-10.69,6.18l-22.39,38.81c-2.19,3.82-2.19,8.49,0,12.31l22.39,38.81c2.19,3.82,6.26,6.18,10.69,6.18h44.78c4.39,0,8.45-2.36,10.69-6.18l22.39-38.81c2.19-3.82,2.19-8.49,0-12.31l-22.39-38.81c-2.19-3.82-6.26-6.18-10.69-6.18Z"/>
  <path class="cls-2" d="M445.17,192.69h-44.78c-4.39,0-8.45,2.36-10.69,6.18l-22.39,38.81c-2.19,3.82-2.19,8.49,0,12.31l22.39,38.81c2.19,3.82,6.26,6.18,10.69,6.18h44.78c4.39,0,8.45-2.36,10.69-6.18l22.39-38.81c2.19-3.82,2.19-8.49,0-12.31l-22.39-38.81c-2.19-3.82-6.26-6.18-10.69-6.18Z"/>
</svg>